# Blender v2.81 (sub 16) OBJ File: 'PA_Test_Body.blend'
# www.blender.org
mtllib PA_Test_Leg.mtl
o Leg_Cube.001
v 0.959574 0.567848 -0.566510
v 0.959574 0.567848 0.566510
v 0.959574 -0.567848 -0.566510
v 0.959574 -0.567848 0.566510
v 6.959575 0.878649 0.876579
v 6.959575 -0.878649 0.876579
v 6.959575 -0.878649 -0.876579
v 6.959575 0.878649 -0.876579
v 1.709574 -0.567848 0.566510
v 2.459574 -0.567848 0.566510
v 3.209574 -0.567848 0.566510
v 3.959574 -0.567848 0.566510
v 4.709574 -0.567848 0.566510
v 5.459574 -0.567848 0.566510
v 6.209576 -0.567848 0.566510
v 6.209575 0.567848 0.566510
v 5.459573 0.567848 0.566510
v 4.709573 0.567848 0.566510
v 3.959574 0.567848 0.566510
v 3.209574 0.567848 0.566510
v 2.459574 0.567848 0.566510
v 1.709574 0.567848 0.566510
v 1.709574 -0.567848 -0.566510
v 2.459574 -0.567848 -0.566510
v 3.209574 -0.567848 -0.566510
v 3.959574 -0.567848 -0.566510
v 4.709574 -0.567848 -0.566510
v 5.459575 -0.567848 -0.566510
v 6.209576 -0.567848 -0.566510
v 1.709574 0.567848 -0.566510
v 2.459574 0.567848 -0.566510
v 3.209574 0.567848 -0.566510
v 3.959574 0.567848 -0.566510
v 4.709574 0.567848 -0.566510
v 5.459575 0.567848 -0.566510
v 6.209576 0.567848 -0.566510
v 6.959575 0.000000 1.139554
v 6.959575 -1.142243 0.000000
v 6.959575 -0.000000 -1.139554
v 6.959575 1.142243 0.000000
v 6.959575 -0.000000 0.000000
v 6.209576 0.567848 -0.000000
v 6.209576 -0.000000 -0.566510
v 6.209576 -0.567848 -0.000000
v 6.209576 0.000000 0.566510
v 0.000000 0.567848 -0.000000
v -0.000000 -0.567848 -0.000000
vt 0.500000 0.750000
vt 0.429019 0.750000
vt 0.429019 0.695981
vt 0.500000 0.695981
vt 0.500000 0.804019
vt 0.500000 0.804019
vt 0.570981 0.804019
vt 0.570981 0.804019
vt 0.429019 0.750000
vt 0.429019 0.804019
vt 0.429019 0.804019
vt 0.500000 0.695981
vt 0.429019 0.695981
vt 0.570981 0.750000
vt 0.570981 0.750000
vt 0.570981 0.695981
vt 0.570981 0.695981
vt 0.570981 0.804019
vt 0.570981 0.804019
vt 0.570981 0.695981
vt 0.570981 0.695981
vt 0.570981 0.804019
vt 0.570981 0.695981
vt 0.570981 0.804019
vt 0.570981 0.695981
vt 0.570981 0.804019
vt 0.570981 0.695981
vt 0.570981 0.804019
vt 0.570981 0.695981
vt 0.570981 0.804019
vt 0.570981 0.695981
vt 0.429019 0.695981
vt 0.429019 0.695981
vt 0.429019 0.695981
vt 0.429019 0.695981
vt 0.429019 0.695981
vt 0.429019 0.695981
vt 0.429019 0.695981
vt 0.429019 0.804019
vt 0.429019 0.804019
vt 0.429019 0.804019
vt 0.429019 0.804019
vt 0.429019 0.804019
vt 0.429019 0.804019
vt 0.429019 0.804019
vt 0.570981 0.750000
vt 0.429019 0.750000
vn 1.0000 0.0000 0.0000
vn -0.5309 -0.0000 0.8475
vn -0.5247 0.1523 0.8376
vn -0.5318 -0.8469 -0.0000
vn -0.5255 -0.8369 0.1529
vn -0.5309 -0.0000 -0.8475
vn -0.5247 -0.1523 -0.8376
vn -0.5318 0.8469 -0.0000
vn -0.5255 0.8369 -0.1529
vn 0.0000 1.0000 0.0000
vn 0.0000 0.0000 -1.0000
vn 0.0000 -1.0000 0.0000
vn -0.0000 0.0000 1.0000
vn -0.5247 0.1523 -0.8376
vn -0.5255 0.8369 0.1529
vn -0.5255 -0.8369 -0.1529
vn -0.5247 -0.1523 0.8376
vn -0.5084 0.0000 -0.8611
vn -0.5084 0.0000 0.8611
usemtl Material
s 1
f 41/1/1 38/2/1 7/3/1 39/4/1
f 45/5/2 37/6/2 5/7/3 16/8/3
f 44/9/4 38/2/4 6/10/5 15/11/5
f 43/12/6 39/4/6 7/3/7 29/13/7
f 42/14/8 40/15/8 8/16/9 36/17/9
f 2/18/10 22/19/10 30/20/10 1/21/10
f 22/19/10 21/22/10 31/23/10 30/20/10
f 21/22/10 20/24/10 32/25/10 31/23/10
f 20/24/10 19/26/10 33/27/10 32/25/10
f 19/26/10 18/28/10 34/29/10 33/27/10
f 18/28/10 17/30/10 35/31/10 34/29/10
f 17/30/10 16/8/10 42/14/10 36/17/10 35/31/10
f 1/21/11 30/20/11 23/32/11 3/33/11
f 30/20/11 31/23/11 24/34/11 23/32/11
f 31/23/11 32/25/11 25/35/11 24/34/11
f 32/25/11 33/27/11 26/36/11 25/35/11
f 33/27/11 34/29/11 27/37/11 26/36/11
f 34/29/11 35/31/11 28/38/11 27/37/11
f 35/31/11 36/17/11 43/12/11 29/13/11 28/38/11
f 3/33/12 23/32/12 9/39/12 4/40/12
f 23/32/12 24/34/12 10/41/12 9/39/12
f 24/34/12 25/35/12 11/42/12 10/41/12
f 25/35/12 26/36/12 12/43/12 11/42/12
f 26/36/12 27/37/12 13/44/12 12/43/12
f 27/37/12 28/38/12 14/45/12 13/44/12
f 28/38/12 29/13/12 44/9/12 15/11/12 14/45/12
f 4/40/13 9/39/13 22/19/13 2/18/13
f 9/39/13 10/41/13 21/22/13 22/19/13
f 10/41/13 11/42/13 20/24/13 21/22/13
f 11/42/13 12/43/13 19/26/13 20/24/13
f 12/43/13 13/44/13 18/28/13 19/26/13
f 13/44/13 14/45/13 17/30/13 18/28/13
f 14/45/13 15/11/13 45/5/13 16/8/13 17/30/13
f 40/15/1 41/1/1 39/4/1 8/16/1
f 5/7/1 37/6/1 41/1/1 40/15/1
f 37/6/1 6/10/1 38/2/1 41/1/1
f 36/17/14 8/16/14 39/4/6 43/12/6
f 16/8/15 5/7/15 40/15/8 42/14/8
f 29/13/16 7/3/16 38/2/4 44/9/4
f 15/11/17 6/10/17 37/6/2 45/5/2
f 46/46/18 1/21/18 3/33/18 47/47/18
f 2/18/19 46/46/19 47/47/19 4/40/19
f 46/46/10 2/18/10 1/21/10
f 47/47/12 3/33/12 4/40/12
